<?xml version="1.0" standalone="no"?>
<!DOCTYPE svg PUBLIC "-//W3C//DTD SVG 20010904//EN"
 "http://www.w3.org/TR/2001/REC-SVG-20010904/DTD/svg10.dtd">
<svg version="1.0" xmlns="http://www.w3.org/2000/svg"
 width="241.000000pt" height="256.000000pt" viewBox="0 0 241.000000 256.000000"
 preserveAspectRatio="xMidYMid meet">

<g transform="translate(0.000000,256.000000) scale(0.100000,-0.100000)"
fill="#000000" stroke="none">
<path d="M1110 2410 c-113 -11 -234 -46 -345 -99 -330 -158 -555 -466 -615
-843 -20 -121 -8 -350 23 -471 108 -411 450 -738 852 -812 122 -23 346 -16
460 15 102 27 281 115 366 179 200 152 348 371 416 617 26 93 28 111 27 299 0
222 -9 272 -78 442 -137 334 -437 586 -784 657 -90 18 -230 25 -322 16z m316
-59 c190 -39 371 -138 513 -278 220 -219 332 -509 318 -828 -14 -337 -168
-631 -436 -833 -328 -247 -768 -269 -1122 -56 -103 62 -250 200 -318 299 -70
101 -136 243 -168 362 -24 88 -27 115 -27 273 0 157 3 185 26 271 36 135 81
236 151 342 147 226 388 393 647 448 117 24 297 24 416 0z"/>
<path d="M515 1687 c-3 -6 -4 -197 -3 -422 l3 -410 77 -3 78 -3 2 287 3 287
130 -221 130 -222 45 0 45 0 130 221 130 220 5 -231 5 -231 77 93 78 93 -3
275 -2 275 -75 3 -75 2 -154 -259 c-85 -143 -158 -258 -161 -256 -4 2 -76 119
-160 260 l-153 255 -74 0 c-50 0 -75 -4 -78 -13z"/>
<path d="M1530 1635 l0 -64 123 -3 122 -3 0 -245 c0 -217 -2 -249 -18 -278
-48 -88 -162 -96 -255 -17 -37 31 -41 29 -90 -38 l-31 -44 32 -31 c74 -71 217
-101 331 -68 72 21 135 77 167 149 23 51 24 60 27 380 l3 327 -205 0 -206 0 0
-65z"/>
</g>
</svg>
